<svg id="Layer_1" data-name="Layer 1" xmlns="http://www.w3.org/2000/svg" viewBox="0 0 217.57 217.49"><title>call</title><path d="M295.27,303.64c-.64-8.25,2.26-14.94,8.43-20.44,3.47-3.09,6.61-6.55,9.9-9.83,12.11-12.06,30.51-11.14,40.95,2.45a44.76,44.76,0,0,1,6.52,12.92c2.59,7.72,4.56,15.67,6.59,23.57,2.74,10.69.47,20.14-7.51,28a30.5,30.5,0,0,1-3.77,3.69c-4.63,3.15-4.8,6.89-2.91,11.92,13,34.57,36.7,57.84,71.91,69.3,2.33.76,3.94.61,5.6-1.33,2-2.37,4.39-4.49,6.62-6.7,7.73-7.66,17-9.95,27.38-7.3,8.87,2.26,17.72,4.67,26.49,7.3C507,421.87,517,438.73,511,453c-5.67,13.34-15.52,24.35-30,28.5-6.45,1.84-14,.54-20.94-.17-32.54-3.3-62.36-14.2-88.79-33.55C330.42,417.91,306,377.83,297.61,328c-.63-3.71-1.1-7.46-1.45-11.21C295.75,312.42,295.56,308,295.27,303.64Z" transform="translate(-295.19 -264.93)"/></svg>